<svg id="No_Image" data-name="No Image" xmlns="http://www.w3.org/2000/svg" width="50" height="50" viewBox="0 0 50 50">
  <path id="No_Image-2" data-name="No Image" d="M402.286,221.071a5.357,5.357,0,1,1-5.357-5.357h0A5.356,5.356,0,0,1,402.286,221.071Zm-3.571,0a1.786,1.786,0,1,0-1.786,1.786h0a1.786,1.786,0,0,0,1.785-1.786ZM363,215.714A10.714,10.714,0,0,1,373.714,205h28.572A10.714,10.714,0,0,1,413,215.714h0v28.572A10.714,10.714,0,0,1,402.286,255H373.714A10.714,10.714,0,0,1,363,244.286h0Zm10.714-7.143a7.143,7.143,0,0,0-7.143,7.143h0v28.572a7.111,7.111,0,0,0,1,3.643l16.674-16.386a5.357,5.357,0,0,1,7.509,0l16.677,16.386a7.111,7.111,0,0,0,1-3.643V215.714a7.143,7.143,0,0,0-7.143-7.143H373.714Zm0,42.857h28.572a7.106,7.106,0,0,0,3.614-.98L389.251,234.09a1.787,1.787,0,0,0-2.5,0L370.1,250.449a7.106,7.106,0,0,0,3.614.98Z" transform="translate(-363 -205)" fill="#dedede"/>
</svg>
